<?xml version="1.0" standalone="no"?>
<!DOCTYPE svg PUBLIC "-//W3C//DTD SVG 20010904//EN"
 "http://www.w3.org/TR/2001/REC-SVG-20010904/DTD/svg10.dtd">
<svg version="1.0" xmlns="http://www.w3.org/2000/svg"
 width="932.000000pt" height="932.000000pt" viewBox="0 0 932.000000 932.000000"
 preserveAspectRatio="xMidYMid meet">
<metadata>
Created by potrace 1.11, written by Peter Selinger 2001-2013
</metadata>
<g transform="translate(0.000000,932.000000) scale(0.100000,-0.100000)"
fill="#000000" stroke="none">
<path d="M4388 9285 c-2 -3 -44 -7 -93 -10 -50 -3 -106 -8 -125 -10 -19 -3
-57 -7 -85 -10 -27 -3 -61 -7 -75 -10 -14 -2 -43 -7 -65 -10 -23 -3 -52 -8
-65 -10 -14 -3 -41 -7 -60 -10 -19 -3 -44 -7 -55 -10 -40 -9 -186 -41 -232
-50 -14 -3 -34 -10 -43 -15 -10 -5 -20 -7 -23 -4 -3 3 -12 2 -19 -2 -7 -5 -17
-9 -23 -11 -26 -5 -56 -14 -120 -33 -38 -12 -86 -26 -105 -32 -19 -5 -39 -14
-45 -18 -5 -5 -13 -9 -17 -9 -5 -1 -9 -1 -10 -2 -2 0 -14 -2 -27 -5 -14 -2
-30 -9 -36 -14 -6 -5 -20 -11 -31 -13 -10 -2 -36 -11 -58 -20 -21 -9 -41 -17
-45 -17 -3 -1 -24 -9 -46 -20 -22 -11 -43 -19 -47 -20 -20 -1 -371 -171 -376
-182 -2 -5 -8 -8 -13 -8 -9 0 -190 -99 -199 -110 -3 -3 -22 -14 -42 -25 -21
-11 -38 -22 -38 -26 0 -4 -8 -9 -17 -13 -21 -7 -39 -18 -157 -100 -47 -32 -86
-63 -86 -68 0 -4 -3 -7 -8 -6 -7 3 -107 -70 -143 -104 -11 -10 -21 -18 -24
-18 -3 0 -18 -11 -33 -24 -15 -14 -38 -34 -52 -46 -191 -162 -471 -443 -582
-585 -12 -16 -30 -37 -38 -47 -18 -20 -27 -31 -65 -83 -45 -60 -49 -65 -65
-83 -8 -10 -46 -63 -84 -120 -38 -56 -72 -105 -77 -108 -5 -3 -7 -10 -4 -15 4
-5 2 -9 -3 -9 -5 0 -17 -15 -26 -32 -19 -38 -39 -71 -46 -78 -11 -9 -124 -215
-121 -219 1 -2 -1 -7 -6 -10 -8 -6 -133 -256 -133 -267 0 -3 -13 -35 -30 -71
-16 -35 -30 -66 -30 -68 0 -2 -5 -16 -12 -32 -6 -15 -12 -30 -13 -33 -1 -3 -6
-16 -12 -30 -23 -55 -71 -202 -69 -210 0 -3 -7 -18 -17 -33 -9 -15 -15 -27
-13 -27 3 0 -2 -21 -10 -47 -16 -51 -22 -75 -30 -110 -2 -12 -9 -35 -15 -50
-6 -16 -10 -29 -10 -30 1 -2 1 -4 0 -5 -2 -9 -9 -37 -14 -63 -3 -16 -15 -70
-26 -118 -10 -48 -22 -104 -25 -124 -3 -19 -8 -45 -10 -57 -2 -11 -7 -37 -9
-56 -3 -19 -8 -50 -11 -67 -2 -18 -7 -54 -9 -80 -3 -27 -7 -61 -10 -78 -13
-84 -20 -247 -19 -490 0 -216 7 -420 14 -420 1 0 3 -18 5 -40 14 -152 22 -210
41 -315 23 -121 23 -120 36 -180 7 -30 13 -59 13 -65 1 -5 4 -19 8 -30 3 -11
9 -33 12 -50 12 -63 16 -79 21 -87 3 -4 7 -18 10 -30 6 -27 9 -37 16 -58 3 -8
11 -35 18 -60 7 -25 16 -54 20 -65 4 -11 25 -69 45 -130 21 -60 42 -116 47
-122 6 -7 7 -13 3 -13 -4 0 -2 -6 4 -13 6 -8 8 -17 4 -20 -3 -4 -1 -7 5 -7 7
0 11 -3 10 -7 -1 -8 3 -21 34 -93 51 -118 83 -185 90 -188 5 -2 8 -9 8 -16 0
-7 12 -35 26 -62 14 -27 40 -76 57 -109 17 -33 34 -62 37 -65 3 -3 14 -23 25
-45 11 -22 23 -44 28 -50 16 -22 57 -86 57 -90 0 -8 141 -214 208 -305 77
-104 74 -100 117 -151 17 -20 39 -47 50 -61 56 -71 154 -177 286 -308 169
-168 195 -192 309 -285 47 -38 87 -72 90 -75 10 -12 199 -149 290 -212 131
-89 312 -198 410 -246 19 -9 37 -20 38 -24 2 -5 12 -8 22 -8 10 0 20 -3 22 -7
2 -7 89 -53 108 -58 3 -1 37 -16 75 -34 39 -18 97 -44 130 -58 33 -14 74 -32
92 -39 17 -8 36 -14 42 -14 6 0 19 -4 29 -9 19 -10 53 -24 64 -25 3 -1 10 -4
14 -8 4 -5 18 -8 30 -8 13 0 25 -4 28 -9 3 -5 16 -11 28 -13 13 -3 77 -22 143
-42 119 -37 134 -42 187 -51 15 -3 40 -10 55 -16 15 -6 29 -10 31 -10 1 1 3 1
5 0 1 -1 13 -2 27 -4 14 -2 55 -10 91 -18 63 -15 94 -20 177 -33 20 -3 46 -8
57 -11 11 -4 40 -8 65 -9 25 -1 45 -3 45 -4 0 -1 11 -3 25 -5 14 -1 52 -5 85
-9 135 -16 213 -19 485 -19 263 -1 382 4 484 19 21 3 60 7 85 10 63 6 101 11
136 18 17 3 46 8 65 11 37 6 232 44 263 51 9 2 27 6 40 10 21 5 41 9 82 18 11
3 74 21 140 40 66 20 131 39 144 42 13 3 33 10 43 15 11 6 27 12 36 14 22 4
127 42 169 61 17 8 34 14 38 14 18 0 437 195 495 230 18 11 163 94 205 118 17
9 32 20 33 25 2 4 8 7 13 7 11 0 72 42 77 53 2 4 8 7 14 7 6 0 40 21 76 48 37
26 79 55 94 64 15 10 35 24 45 33 50 43 91 75 98 75 4 0 17 10 29 23 11 12 37
33 56 47 19 13 40 29 46 35 6 5 39 35 74 65 61 54 319 307 391 386 30 32 97
112 218 259 9 11 45 61 81 110 35 50 73 100 84 112 11 13 15 23 10 23 -5 0 -4
4 2 8 11 7 124 177 124 186 0 3 14 25 30 49 17 25 30 48 30 51 0 4 11 24 25
46 24 37 149 279 150 290 0 3 6 14 12 25 6 11 29 65 52 120 23 55 46 109 51
120 12 26 71 186 75 205 2 8 18 58 35 110 40 124 54 173 52 183 -1 4 2 16 7
26 10 17 23 72 24 99 0 6 4 12 9 12 5 0 7 4 4 9 -4 5 1 35 9 68 8 32 17 72 20
88 2 17 7 41 10 55 7 35 13 68 21 125 3 28 8 59 11 70 2 11 6 44 8 73 3 29 7
64 9 78 28 151 28 742 1 964 -3 25 -8 61 -9 80 -4 34 -11 80 -22 150 -3 19 -8
50 -10 69 -3 19 -14 77 -25 129 -11 52 -22 106 -24 121 -2 14 -4 26 -5 26 -1
0 -3 7 -5 15 -2 8 -7 26 -10 40 -3 14 -8 36 -11 49 -3 14 -8 29 -12 35 -3 6
-8 21 -10 33 -4 29 -101 327 -137 418 -27 71 -61 153 -97 235 -30 67 -141 287
-177 350 -17 30 -37 66 -44 80 -6 14 -14 27 -17 30 -11 10 -70 112 -70 120 0
5 -3 10 -7 12 -5 2 -44 57 -88 122 -43 65 -84 124 -90 130 -5 6 -35 45 -66 87
-31 41 -63 82 -70 90 -8 8 -34 39 -59 69 -76 92 -130 150 -270 290 -135 135
-179 176 -279 260 -29 25 -63 53 -75 63 -71 62 -230 178 -355 261 -130 86
-258 166 -266 166 -2 0 -28 14 -57 31 -207 123 -558 275 -853 370 -33 10 -73
23 -90 29 -40 12 -253 68 -285 74 -14 2 -70 14 -125 25 -132 27 -163 33 -205
36 -19 2 -35 4 -35 5 0 5 -138 21 -300 35 -22 2 -40 4 -40 6 0 4 -603 8 -607
4z m507 -1084 c0 -1 29 -4 65 -6 36 -2 88 -6 115 -10 28 -3 70 -8 94 -10 24
-3 51 -7 60 -9 9 -3 31 -8 49 -11 74 -12 99 -17 136 -25 22 -5 44 -7 48 -4 4
3 8 0 8 -7 0 -7 2 -10 6 -7 4 5 68 -10 159 -36 6 -1 30 -8 55 -15 25 -7 70
-21 100 -32 30 -11 60 -22 65 -23 6 -2 23 -7 39 -11 16 -4 41 -14 55 -21 14
-8 29 -14 32 -14 4 0 24 -8 45 -17 22 -9 41 -17 44 -18 30 -9 329 -154 340
-165 3 -3 16 -11 29 -18 13 -8 38 -22 55 -31 17 -10 65 -40 106 -67 41 -26 82
-53 91 -59 51 -32 98 -65 110 -77 8 -7 41 -33 74 -58 79 -59 123 -97 247 -210
15 -14 33 -30 40 -36 27 -25 175 -182 218 -233 25 -29 50 -58 55 -65 6 -6 40
-49 75 -96 36 -47 68 -86 73 -88 4 -2 7 -9 7 -15 0 -6 7 -19 17 -29 9 -10 21
-27 27 -37 6 -10 36 -58 66 -105 91 -143 239 -424 255 -486 1 -3 6 -16 12 -30
28 -64 65 -165 62 -165 -1 0 3 -10 10 -23 7 -13 14 -31 17 -40 7 -30 86 -306
91 -322 3 -8 7 -24 8 -35 2 -11 13 -72 25 -135 12 -63 23 -131 25 -150 2 -19
6 -53 10 -75 3 -22 8 -67 9 -101 1 -33 4 -64 7 -70 2 -5 4 -51 4 -101 0 -51 4
-93 8 -93 5 0 5 -5 1 -12 -4 -6 -8 -73 -10 -147 -1 -75 -5 -165 -8 -201 -14
-135 -16 -156 -20 -180 -3 -14 -7 -41 -10 -60 -8 -48 -24 -140 -30 -170 -26
-122 -39 -171 -47 -176 -5 -3 -7 -10 -3 -15 3 -5 -4 -38 -16 -73 -12 -36 -22
-74 -23 -85 -1 -12 -4 -21 -8 -21 -4 0 -9 -12 -12 -27 -3 -16 -10 -39 -15 -53
-5 -14 -11 -29 -12 -35 -29 -104 -265 -593 -292 -603 -4 -2 -8 -8 -8 -14 0
-16 -163 -257 -240 -355 -161 -204 -384 -431 -557 -567 -29 -22 -53 -44 -53
-48 0 -5 -5 -8 -11 -8 -6 0 -26 -12 -44 -28 -18 -15 -50 -38 -70 -52 -20 -14
-42 -31 -50 -38 -7 -6 -18 -12 -23 -12 -5 0 -17 -9 -27 -20 -10 -11 -22 -20
-27 -20 -8 0 -87 -48 -98 -60 -3 -3 -16 -11 -30 -17 -14 -7 -47 -26 -75 -42
-48 -28 -291 -151 -299 -151 -2 0 -21 -8 -42 -17 -22 -9 -41 -17 -44 -18 -3 0
-10 -3 -16 -7 -13 -9 -174 -68 -198 -73 -10 -2 -24 -9 -30 -15 -7 -5 -16 -7
-19 -4 -3 3 -12 2 -19 -2 -7 -5 -15 -9 -18 -9 -3 -1 -32 -9 -65 -19 -33 -10
-61 -18 -62 -18 -2 1 -17 -4 -35 -9 -18 -6 -44 -12 -58 -15 -14 -3 -54 -12
-90 -20 -36 -9 -74 -17 -85 -19 -11 -1 -51 -8 -90 -14 -113 -18 -137 -21 -290
-37 -71 -7 -538 -12 -549 -6 -5 3 -32 7 -60 8 -74 4 -167 13 -185 18 -9 3 -43
8 -76 11 -32 4 -62 8 -65 10 -3 2 -23 6 -45 9 -22 4 -47 8 -55 11 -8 2 -26 6
-40 9 -14 3 -42 10 -62 15 -21 5 -38 7 -38 4 0 -2 -6 -1 -12 4 -7 4 -22 9 -33
11 -32 5 -219 62 -238 73 -10 5 -22 7 -27 4 -6 -4 -10 -1 -10 4 0 6 -3 10 -7
9 -10 -3 -99 29 -135 48 -14 8 -31 14 -37 14 -18 0 -308 138 -386 184 -131 77
-276 169 -290 182 -8 9 -15 12 -15 7 0 -4 -4 -3 -8 2 -4 6 -23 22 -42 35 -34
24 -47 34 -73 55 -7 6 -32 26 -57 45 -25 19 -50 39 -57 45 -7 5 -26 21 -43 35
-44 34 -360 350 -387 386 -12 16 -30 38 -40 49 -32 35 -118 148 -164 215 -24
36 -47 67 -51 68 -5 2 -8 10 -8 18 0 8 -4 14 -10 14 -5 0 -10 7 -10 15 0 8 -4
15 -10 15 -5 0 -10 4 -10 8 0 5 -24 49 -54 98 -83 139 -196 367 -251 509 -49
126 -120 346 -131 405 -2 14 -9 36 -13 50 -5 14 -10 33 -10 43 -2 37 -5 47
-13 47 -5 0 -7 4 -4 8 2 4 -2 39 -10 77 -8 39 -17 90 -19 115 -2 25 -6 52 -9
60 -16 46 -29 260 -29 490 -1 169 7 365 13 365 1 0 3 18 4 40 5 63 29 211 51
315 3 14 7 35 10 48 2 13 6 31 9 40 3 9 8 31 11 47 3 17 7 35 9 40 1 6 8 30
15 55 7 25 15 52 18 60 3 8 7 20 8 25 13 53 75 224 118 325 6 14 11 27 12 30
13 38 116 251 158 325 45 81 172 283 194 310 4 6 35 47 67 93 33 45 63 82 68
82 4 0 8 5 8 10 0 6 8 18 18 28 9 10 37 42 62 72 25 30 59 68 75 85 17 18 49
53 73 78 23 26 44 47 46 47 1 0 34 30 73 68 39 37 87 81 108 97 20 17 42 35
49 40 73 66 365 275 384 275 6 0 12 4 14 8 4 10 125 82 137 82 5 0 14 7 21 15
7 8 16 13 20 10 5 -3 12 -1 15 5 8 14 222 115 345 165 52 20 109 44 127 51 17
8 37 14 45 14 8 0 19 5 26 12 7 7 12 9 12 5 0 -3 12 -2 28 4 32 13 172 53 222
65 49 11 50 11 53 14 3 2 26 7 72 15 22 4 43 9 46 11 3 2 21 6 40 9 113 19
148 25 183 30 61 9 146 17 203 19 29 2 55 5 58 7 4 5 480 4 480 0z"/>
<path d="M4546 7633 c-2 -2 -47 -5 -102 -8 -54 -3 -110 -7 -124 -10 -14 -2
-45 -6 -70 -10 -118 -17 -153 -23 -210 -36 -25 -6 -56 -13 -70 -15 -14 -3 -50
-12 -80 -20 -30 -8 -62 -16 -70 -18 -159 -38 -593 -221 -648 -273 -7 -7 -18
-13 -23 -13 -5 0 -55 -29 -112 -65 -56 -36 -111 -71 -122 -78 -11 -7 -27 -20
-36 -29 -9 -10 -20 -18 -24 -18 -6 0 -75 -52 -163 -124 -46 -38 -317 -310
-352 -354 -19 -24 -42 -52 -50 -62 -8 -9 -25 -30 -37 -46 -12 -16 -37 -50 -57
-77 -20 -26 -36 -52 -36 -57 0 -6 -4 -10 -10 -10 -5 0 -10 -4 -10 -9 0 -5 -15
-31 -33 -57 -43 -65 -81 -127 -81 -136 -1 -3 -5 -10 -9 -15 -5 -4 -15 -21 -23
-38 -7 -16 -18 -37 -23 -45 -12 -19 -91 -188 -91 -195 0 -3 -8 -24 -19 -48
-22 -49 -45 -108 -48 -122 -1 -5 -11 -37 -23 -70 -12 -33 -24 -67 -26 -75 -2
-8 -15 -58 -28 -110 -14 -52 -28 -111 -31 -130 -3 -19 -8 -42 -11 -51 -2 -10
-7 -30 -9 -45 -20 -133 -24 -164 -31 -239 -3 -38 -7 -110 -9 -160 -1 -49 -4
-94 -5 -100 -1 -5 -1 -12 0 -15 1 -3 3 -43 5 -90 3 -89 12 -201 20 -260 3 -19
7 -53 10 -75 3 -22 7 -51 10 -65 39 -201 65 -302 102 -405 13 -38 26 -74 27
-80 27 -100 219 -503 262 -551 5 -6 25 -37 44 -68 19 -31 38 -56 42 -56 4 0 8
-5 8 -12 0 -9 118 -173 155 -214 6 -6 48 -53 95 -104 78 -85 106 -114 196
-196 46 -43 134 -117 158 -133 12 -8 23 -17 26 -21 29 -33 292 -204 410 -266
30 -16 58 -33 61 -37 3 -5 9 -8 13 -7 4 1 44 -16 89 -38 45 -21 134 -58 197
-82 63 -23 124 -46 135 -51 27 -11 136 -42 155 -44 9 0 20 -4 25 -7 6 -3 26
-9 46 -12 20 -3 48 -10 63 -15 14 -6 26 -9 26 -6 0 2 15 -1 33 -6 17 -5 52
-12 77 -15 25 -3 54 -8 65 -10 84 -18 322 -37 465 -37 123 0 342 15 420 29 14
2 66 11 115 19 50 9 106 20 125 25 19 5 46 11 60 14 56 11 75 16 173 47 56 17
103 32 104 31 1 0 51 20 110 44 59 25 112 46 117 47 18 4 291 144 328 168 20
13 59 37 85 53 136 84 311 219 431 333 24 24 45 43 48 43 2 0 25 23 51 51 26
29 64 69 83 89 85 91 213 255 265 339 6 9 24 36 41 61 17 25 34 52 38 60 3 8
22 42 41 75 67 115 204 412 210 455 0 3 15 48 33 101 18 52 34 104 36 115 3
10 14 59 26 108 11 50 23 105 26 124 3 19 8 44 10 56 3 11 7 39 10 61 3 22 7
51 9 65 19 102 25 481 11 624 -16 163 -50 356 -86 481 -10 36 -19 66 -19 68 0
10 -55 183 -62 192 -3 6 -12 28 -19 50 -27 83 -132 303 -203 425 -49 83 -155
246 -182 278 -8 10 -37 46 -65 81 -116 147 -245 280 -415 426 -55 48 -209 161
-285 210 -41 26 -87 56 -102 66 -15 11 -32 19 -37 19 -5 0 -16 6 -23 13 -20
20 -272 141 -383 185 -143 56 -331 115 -435 136 -253 50 -287 56 -365 62 -27
2 -84 6 -125 10 -78 6 -310 11 -314 7z m199 -371 c8 5 15 5 15 1 0 -4 42 -9
93 -10 50 -2 112 -5 137 -8 25 -3 65 -7 90 -10 25 -3 56 -7 70 -10 14 -2 41
-7 60 -10 19 -3 55 -10 80 -15 25 -5 56 -12 70 -14 131 -25 352 -101 481 -168
134 -68 286 -189 323 -255 5 -10 12 -20 16 -23 15 -12 52 -116 56 -157 2 -24
6 -48 9 -53 3 -5 1 -11 -5 -15 -6 -4 -8 -10 -5 -14 10 -17 -25 -107 -64 -166
-36 -55 -72 -93 -159 -168 -18 -15 -32 -25 -32 -22 0 4 -15 -5 -32 -18 -18
-13 -51 -32 -73 -43 -22 -10 -46 -25 -53 -31 -7 -7 -22 -13 -32 -13 -10 0 -20
-3 -22 -7 -3 -8 -45 -25 -173 -70 -66 -23 -79 -27 -123 -37 -9 -2 -37 -9 -62
-16 -48 -13 -70 -18 -110 -25 -14 -3 -47 -9 -73 -15 -27 -5 -51 -9 -55 -9 -4
1 -9 0 -12 -1 -10 -4 -76 -11 -127 -13 -29 -1 -53 -4 -53 -7 0 -20 -540 -17
-695 4 -16 2 -52 7 -80 10 -66 8 -132 20 -230 41 -44 9 -85 18 -92 19 -7 1
-16 5 -19 9 -4 4 -15 7 -24 7 -9 0 -57 14 -106 31 -49 17 -95 31 -101 31 -7 1
-13 5 -13 10 0 4 -7 8 -15 8 -8 0 -23 4 -33 9 -9 5 -35 17 -57 27 -22 11 -64
34 -93 52 -29 17 -57 32 -62 32 -6 0 -10 5 -10 10 0 6 -4 10 -10 10 -14 0 -46
26 -121 101 -75 75 -125 165 -135 244 -3 28 -8 53 -11 58 -2 4 0 7 5 7 5 0 8
14 7 30 -2 26 35 126 57 155 42 55 82 100 110 122 18 15 35 31 38 34 14 18
162 106 235 140 119 56 320 124 430 145 11 2 43 8 70 14 28 5 68 13 90 16 22
3 58 9 81 13 23 4 55 7 73 7 17 -1 31 1 31 4 0 3 15 6 33 7 17 1 88 4 156 7
68 3 125 7 127 9 2 2 28 0 59 -3 30 -3 61 -2 70 2z"/>
</g>
</svg>
